<?xml version="1.0" standalone="no"?>
<!DOCTYPE svg PUBLIC "-//W3C//DTD SVG 20010904//EN"
 "http://www.w3.org/TR/2001/REC-SVG-20010904/DTD/svg10.dtd">
<svg version="1.0" xmlns="http://www.w3.org/2000/svg"
 width="319.000000pt" height="319.000000pt" viewBox="0 0 319.000000 319.000000"
 preserveAspectRatio="xMidYMid meet">
<metadata>
Created by potrace 1.11, written by Peter Selinger 2001-2013
</metadata>
<g transform="translate(0.000000,319.000000) scale(0.100000,-0.100000)"
fill="#000000" stroke="none">
<path d="M1310 2881 c-90 -29 -163 -90 -207 -174 -25 -48 -28 -63 -31 -189
l-4 -137 -401 -3 -402 -3 -56 -26 c-79 -37 -133 -90 -171 -167 l-33 -67 0
-780 0 -780 26 -56 c37 -79 90 -133 167 -171 l67 -33 1330 0 1330 0 56 26 c79
37 133 90 171 167 l33 67 0 780 0 780 -33 67 c-38 77 -92 130 -171 167 l-56
26 -402 3 -401 3 -4 137 c-3 126 -6 141 -31 189 -34 66 -83 115 -150 151 l-52
27 -275 2 c-151 1 -286 -2 -300 -6z m570 -105 c49 -26 98 -74 123 -121 18 -34
21 -58 21 -155 l1 -115 -430 0 -430 0 1 115 c0 127 9 156 68 218 70 75 100 81
381 79 203 -2 234 -4 265 -21z m1043 -510 c55 -20 103 -61 134 -114 l28 -47 0
-770 0 -770 -28 -47 c-31 -53 -79 -94 -134 -114 -56 -20 -2600 -20 -2656 0
-55 20 -103 61 -134 114 l-28 47 0 770 0 770 28 47 c31 53 79 94 134 114 56
20 2600 20 2656 0z"/>
<path d="M1470 1874 c-219 -47 -399 -228 -445 -449 -41 -196 17 -389 159 -531
230 -230 592 -230 822 0 82 82 136 181 159 291 87 413 -282 778 -695 689z
m245 -89 c88 -23 167 -70 233 -139 190 -198 190 -484 0 -682 -193 -201 -492
-206 -694 -12 -205 197 -205 509 0 706 128 123 297 169 461 127z"/>
<path d="M1661 1439 c-36 -45 -70 -79 -80 -79 -18 0 -51 -29 -51 -46 0 -5 -64
-38 -141 -74 -78 -36 -144 -70 -146 -77 -3 -6 -1 -18 4 -26 6 -12 35 -2 153
54 109 51 152 66 173 62 35 -7 67 20 67 56 0 17 22 53 60 101 33 41 60 78 60
82 0 4 -8 12 -18 17 -15 8 -28 -3 -81 -70z"/>
</g>
</svg>
