<svg id="Layer_1" data-name="Layer 1" xmlns="http://www.w3.org/2000/svg" viewBox="0 0 319 260.5"><defs><style>.cls-1{fill:none;stroke:#fff;stroke-width:10px;}</style></defs><title>symbol</title><g id="Group_1" data-name="Group 1"><path id="Union_2" data-name="Union 2" class="cls-1" d="M284,255.5H35A30,30,0,0,1,5,225.56V86.5a30,30,0,0,1,29.94-30H111.5V34A29,29,0,0,1,140.44,5H178.5a29,29,0,0,1,29,28.94V56.5H284a30,30,0,0,1,30,29.94V225.5a30,30,0,0,1-29.94,30Z" transform="translate(0 0)"/><path id="Path_1" data-name="Path 1" class="cls-1" d="M108.8,56.37H209.07" transform="translate(0 0)"/><g id="Ellipse_1" data-name="Ellipse 1"><circle class="cls-1" cx="159.5" cy="159" r="58.5"/><circle class="cls-1" cx="159.5" cy="159" r="54"/></g><line id="Line_2" data-name="Line 2" class="cls-1" x1="158.5" y1="159" x2="124.5" y2="175"/><line id="Line_3" data-name="Line 3" class="cls-1" x1="158.5" y1="159" x2="174.5" y2="139"/><circle id="Ellipse_2" data-name="Ellipse 2" class="cls-1" cx="158.5" cy="159" r="5.5"/></g></svg>